<svg xmlns="http://www.w3.org/2000/svg" viewBox="0 0 512 512" width="512" height="512">
  <defs>
    <linearGradient id="grad" x1="0%" y1="0%" x2="100%" y2="100%">
      <stop offset="0%" style="stop-color:#2563EB;stop-opacity:1" />
      <stop offset="100%" style="stop-color:#06B6D4;stop-opacity:1" />
    </linearGradient>
  </defs>
  <!-- Rounded square background -->
  <rect x="16" y="16" width="480" height="480" rx="96" ry="96" fill="url(#grad)"/>
  <!-- Chat bubble shape (white) -->
  <path d="M128 160 h256 a32 32 0 0 1 32 32 v144 a32 32 0 0 1-32 32 h-160 l-64 48 v-48 h-32 a32 32 0 0 1-32-32 v-144 a32 32 0 0 1 32-32z" fill="white" opacity="0.95"/>
  <!-- Audio wave bars inside bubble -->
  <rect x="176" y="224" width="16" height="64" rx="8" fill="#2563EB" opacity="0.7"/>
  <rect x="208" y="200" width="16" height="112" rx="8" fill="#2563EB" opacity="0.85"/>
  <rect x="240" y="216" width="16" height="80" rx="8" fill="#06B6D4" opacity="0.9"/>
  <rect x="272" y="192" width="16" height="128" rx="8" fill="#2563EB" opacity="0.85"/>
  <rect x="304" y="208" width="16" height="96" rx="8" fill="#06B6D4" opacity="0.8"/>
  <rect x="336" y="232" width="16" height="48" rx="8" fill="#2563EB" opacity="0.65"/>
</svg>
